<?xml version="1.0" encoding="UTF-8" standalone="no"?>
<!DOCTYPE svg PUBLIC "-//W3C//DTD SVG 1.1//EN"
 "http://www.w3.org/Graphics/SVG/1.1/DTD/svg11.dtd">
<!-- Generated by graphviz version 7.0.6 (20230106.0513)
 -->
<!-- Title: example Pages: 1 -->
<svg width="341pt" height="315pt"
 viewBox="0.00 0.00 341.00 315.00" xmlns="http://www.w3.org/2000/svg" xmlns:xlink="http://www.w3.org/1999/xlink">
<g id="graph0" class="graph" transform="scale(1 1) rotate(0) translate(4 311)">
<title>example</title>
<polygon fill="white" stroke="none" points="-4,4 -4,-311 337,-311 337,4 -4,4"/>
<g id="clust1" class="cluster">
<title>cluster_0</title>
<polygon fill="none" stroke="black" points="122,-224 122,-299 317,-299 317,-224 122,-224"/>
<text text-anchor="middle" x="219.5" y="-283.8" font-family="Times,serif" font-size="14.00">batch_0</text>
</g>
<g id="clust2" class="cluster">
<title>cluster_1</title>
<polygon fill="none" stroke="black" points="8,-116 8,-191 114,-191 114,-116 8,-116"/>
<text text-anchor="middle" x="61" y="-175.8" font-family="Times,serif" font-size="14.00">batch_1</text>
</g>
<g id="clust3" class="cluster">
<title>cluster_2</title>
<polygon fill="none" stroke="black" points="122,-116 122,-191 218,-191 218,-116 122,-116"/>
<text text-anchor="middle" x="170" y="-175.8" font-family="Times,serif" font-size="14.00">batch_2</text>
</g>
<g id="clust4" class="cluster">
<title>cluster_3</title>
<polygon fill="none" stroke="black" points="167,-8 167,-83 325,-83 325,-8 167,-8"/>
<text text-anchor="middle" x="246" y="-67.8" font-family="Times,serif" font-size="14.00">batch_3</text>
</g>
<!-- create_a -->
<g id="node1" class="node">
<title>create_a</title>
<ellipse fill="none" stroke="black" cx="170" cy="-250" rx="40.09" ry="18"/>
<text text-anchor="middle" x="170" y="-246.3" font-family="Times,serif" font-size="14.00">create_a</text>
</g>
<!-- modify_a -->
<g id="node3" class="node">
<title>modify_a</title>
<ellipse fill="none" stroke="black" cx="61" cy="-142" rx="44.69" ry="18"/>
<text text-anchor="middle" x="61" y="-138.3" font-family="Times,serif" font-size="14.00">modify_a</text>
</g>
<!-- create_a&#45;&gt;modify_a -->
<g id="edge3" class="edge">
<title>create_a&#45;&gt;modify_a</title>
<path fill="none" stroke="mediumblue" d="M153.92,-233.36C135.91,-215.85 106.51,-187.26 85.61,-166.93"/>
<polygon fill="mediumblue" stroke="mediumblue" points="88.2,-164.57 78.59,-160.11 83.32,-169.59 88.2,-164.57"/>
<text text-anchor="middle" x="137" y="-202.8" font-family="Times,serif" font-size="14.00">A</text>
</g>
<!-- create_c -->
<g id="node4" class="node">
<title>create_c</title>
<ellipse fill="none" stroke="black" cx="170" cy="-142" rx="40.09" ry="18"/>
<text text-anchor="middle" x="170" y="-138.3" font-family="Times,serif" font-size="14.00">create_c</text>
</g>
<!-- create_a&#45;&gt;create_c -->
<g id="edge1" class="edge">
<title>create_a&#45;&gt;create_c</title>
<path fill="none" stroke="limegreen" d="M170,-231.97C170,-215.76 170,-191.06 170,-171.79"/>
<polygon fill="limegreen" stroke="limegreen" points="173.5,-171.85 170,-161.85 166.5,-171.85 173.5,-171.85"/>
<text text-anchor="middle" x="175" y="-202.8" font-family="Times,serif" font-size="14.00">A</text>
</g>
<!-- reduce_abc_to_d -->
<g id="node5" class="node">
<title>reduce_abc_to_d</title>
<ellipse fill="none" stroke="black" cx="246" cy="-34" rx="70.69" ry="18"/>
<text text-anchor="middle" x="246" y="-30.3" font-family="Times,serif" font-size="14.00">reduce_abc_to_d</text>
</g>
<!-- create_a&#45;&gt;reduce_abc_to_d -->
<g id="edge2" class="edge">
<title>create_a&#45;&gt;reduce_abc_to_d</title>
<path fill="none" stroke="tomato" d="M197.45,-236.48C206.7,-230.9 216.14,-223.43 222,-214 250.96,-167.38 251.54,-100.82 249.01,-63.39"/>
<polygon fill="tomato" stroke="tomato" points="252.53,-63.51 248.23,-53.83 245.55,-64.08 252.53,-63.51"/>
<text text-anchor="middle" x="255" y="-138.3" font-family="Times,serif" font-size="14.00">A</text>
</g>
<!-- create_b -->
<g id="node2" class="node">
<title>create_b</title>
<ellipse fill="none" stroke="black" cx="269" cy="-250" rx="40.09" ry="18"/>
<text text-anchor="middle" x="269" y="-246.3" font-family="Times,serif" font-size="14.00">create_b</text>
</g>
<!-- create_b&#45;&gt;modify_a -->
<g id="edge6" class="edge">
<title>create_b&#45;&gt;modify_a</title>
<path fill="none" stroke="limegreen" d="M245.02,-235.1C234.02,-228.71 220.83,-221 209,-214 197.85,-207.4 196.26,-203.21 184,-199 156.05,-189.41 145.1,-202.79 118,-191 105.28,-185.47 93.22,-176.15 83.5,-167.2"/>
<polygon fill="limegreen" stroke="limegreen" points="85.96,-164.71 76.36,-160.24 81.08,-169.73 85.96,-164.71"/>
<text text-anchor="middle" x="214" y="-202.8" font-family="Times,serif" font-size="14.00">B</text>
</g>
<!-- create_b&#45;&gt;create_c -->
<g id="edge4" class="edge">
<title>create_b&#45;&gt;create_c</title>
<path fill="none" stroke="limegreen" d="M253.96,-232.9C237.66,-215.44 211.46,-187.39 192.66,-167.26"/>
<polygon fill="limegreen" stroke="limegreen" points="195.27,-164.93 185.89,-160.01 190.15,-169.71 195.27,-164.93"/>
<text text-anchor="middle" x="240" y="-202.8" font-family="Times,serif" font-size="14.00">B</text>
</g>
<!-- create_b&#45;&gt;reduce_abc_to_d -->
<g id="edge5" class="edge">
<title>create_b&#45;&gt;reduce_abc_to_d</title>
<path fill="none" stroke="tomato" d="M269.07,-231.82C268.97,-202.69 267.73,-141.79 260,-91 258.6,-81.77 256.36,-71.84 254.08,-62.94"/>
<polygon fill="tomato" stroke="tomato" points="257.51,-62.19 251.53,-53.45 250.75,-64.01 257.51,-62.19"/>
<text text-anchor="middle" x="274" y="-138.3" font-family="Times,serif" font-size="14.00">B</text>
</g>
<!-- create_c&#45;&gt;reduce_abc_to_d -->
<g id="edge7" class="edge">
<title>create_c&#45;&gt;reduce_abc_to_d</title>
<path fill="none" stroke="tomato" d="M181.88,-124.44C194,-107.52 213.01,-81.02 227.18,-61.24"/>
<polygon fill="tomato" stroke="tomato" points="229.84,-63.54 232.82,-53.38 224.15,-59.47 229.84,-63.54"/>
<text text-anchor="middle" x="211" y="-94.8" font-family="Times,serif" font-size="14.00">C</text>
</g>
</g>
</svg>
